<svg width="764" height="458" viewBox="0 0 764 458" fill="none" xmlns="http://www.w3.org/2000/svg">
<g id="undraw_Finance_re_gnv2 1" clip-path="url(#clip0)">
<g id="bubble1">
<path id="Vector" d="M48 96C38.5065 96 29.2262 93.1849 21.3326 87.9105C13.4391 82.6362 7.28678 75.1396 3.65377 66.3688C0.0207672 57.5979 -0.929793 47.9467 0.922298 38.6356C2.77439 29.3246 7.34596 20.7718 14.0589 14.0589C20.7718 7.34594 29.3246 2.77439 38.6357 0.922298C47.9468 -0.929793 57.5979 0.0207672 66.3688 3.65377C75.1396 7.28678 82.6362 13.4391 87.9105 21.3326C93.1849 29.2262 96 38.5065 96 48C95.9856 60.726 90.9239 72.9266 81.9252 81.9252C72.9266 90.9239 60.726 95.9856 48 96ZM48 2C38.9021 2 30.0084 4.69785 22.4438 9.75239C14.8791 14.8069 8.98317 21.9912 5.50154 30.3966C2.01991 38.802 1.10896 48.051 2.88388 56.9741C4.6588 65.8973 9.03986 74.0937 15.4731 80.5269C21.9063 86.9601 30.1027 91.3412 39.0258 93.1161C47.949 94.891 57.198 93.9801 65.6034 90.4984C74.0089 87.0168 81.1931 81.1209 86.2476 73.5562C91.3022 65.9916 94 57.0979 94 48C93.9862 35.8043 89.1353 24.112 80.5117 15.4884C71.888 6.86467 60.1957 2.01382 48 2Z" fill="#F2F2F2"/>
</g>
<g id="bubble2">
<path id="Vector_2" d="M374 68C369.253 68 364.613 66.5924 360.666 63.9553C356.719 61.3181 353.643 57.5698 351.827 53.1844C350.01 48.799 349.535 43.9734 350.461 39.3179C351.387 34.6623 353.673 30.3859 357.029 27.0294C360.386 23.673 364.662 21.3872 369.318 20.4612C373.973 19.5351 378.799 20.0104 383.184 21.8269C387.57 23.6434 391.318 26.7196 393.955 30.6663C396.592 34.6131 398 39.2533 398 44C397.993 50.363 395.462 56.4633 390.963 60.9626C386.463 65.4619 380.363 67.9928 374 68ZM374 22C369.649 22 365.395 23.2903 361.777 25.7077C358.16 28.1251 355.34 31.561 353.675 35.581C352.01 39.601 351.574 44.0244 352.423 48.292C353.272 52.5596 355.367 56.4796 358.444 59.5563C361.52 62.6331 365.44 64.7284 369.708 65.5773C373.976 66.4262 378.399 65.9905 382.419 64.3254C386.439 62.6602 389.875 59.8404 392.292 56.2225C394.71 52.6047 396 48.3512 396 44C395.993 38.1673 393.673 32.5753 389.549 28.4509C385.425 24.3266 379.833 22.0066 374 22Z" fill="#F2F2F2"/>
</g>
<g id="bubble3">
<path id="Vector_3" d="M543 185C537.66 185 532.44 183.416 528 180.45C523.559 177.483 520.099 173.266 518.055 168.332C516.012 163.399 515.477 157.97 516.519 152.733C517.561 147.495 520.132 142.684 523.908 138.908C527.684 135.132 532.495 132.561 537.733 131.519C542.97 130.477 548.399 131.012 553.332 133.055C558.266 135.099 562.483 138.559 565.45 143C568.416 147.44 570 152.66 570 158C569.992 165.158 567.145 172.021 562.083 177.083C557.021 182.145 550.158 184.992 543 185ZM543 133C538.055 133 533.222 134.466 529.111 137.213C525 139.96 521.795 143.865 519.903 148.433C518.011 153.001 517.516 158.028 518.48 162.877C519.445 167.727 521.826 172.181 525.322 175.678C528.819 179.174 533.273 181.555 538.123 182.52C542.972 183.484 547.999 182.989 552.567 181.097C557.135 179.205 561.04 176 563.787 171.889C566.534 167.778 568 162.945 568 158C567.993 151.372 565.356 145.017 560.669 140.331C555.983 135.644 549.628 133.007 543 133Z" fill="#F2F2F2"/>
</g>
<path id="Vector_4" d="M762.057 458H537.057C536.792 458 536.537 457.895 536.35 457.707C536.162 457.52 536.057 457.265 536.057 457C536.057 456.735 536.162 456.48 536.35 456.293C536.537 456.105 536.792 456 537.057 456H762.057C762.322 456 762.577 456.105 762.764 456.293C762.952 456.48 763.057 456.735 763.057 457C763.057 457.265 762.952 457.52 762.764 457.707C762.577 457.895 762.322 458 762.057 458Z" fill="#CCCCCC"/>
<path id="Vector_5" d="M643.465 420.343L631.857 424.285L611.124 381.386L628.257 375.567L643.465 420.343Z" fill="#FFB8B8"/>
<path id="Vector_6" d="M622.439 423.785L644.826 416.181L649.614 430.277L613.13 442.669C612.502 440.818 612.244 438.861 612.371 436.91C612.499 434.959 613.009 433.053 613.874 431.299C614.738 429.546 615.939 427.98 617.409 426.69C618.878 425.401 620.588 424.414 622.439 423.785Z" fill="#2F2E41"/>
<path id="Vector_7" d="M669.694 444.575L657.45 445.19L649.249 398.255L667.321 397.346L669.694 444.575Z" fill="#FFB8B8"/>
<path id="Vector_8" d="M648.528 442.131L672.142 440.944L672.889 455.812L634.407 457.746C634.309 455.794 634.596 453.841 635.253 452C635.91 450.158 636.922 448.464 638.234 447.014C639.545 445.564 641.129 444.387 642.895 443.549C644.661 442.711 646.576 442.229 648.528 442.131Z" fill="#2F2E41"/>
<path id="Vector_9" d="M598.882 289.186C599.98 288.209 600.85 287.002 601.432 285.652C602.013 284.302 602.291 282.841 602.246 281.371C602.202 279.902 601.836 278.46 601.173 277.147C600.511 275.835 599.57 274.683 598.414 273.774L610.088 240L592.097 244.598L583.769 275.965C582.371 278.007 581.769 280.491 582.08 282.947C582.39 285.402 583.591 287.659 585.453 289.289C587.316 290.918 589.712 291.808 592.187 291.789C594.662 291.77 597.044 290.844 598.882 289.186Z" fill="#FFB8B8"/>
<path id="Vector_10" d="M668.55 430.424C668.391 430.424 668.233 430.415 668.076 430.398L651.455 428.639C650.434 428.536 649.479 428.084 648.751 427.361C648.023 426.637 647.566 425.686 647.457 424.665L634.612 310.155V343L642.647 403.073C642.823 403.7 642.861 404.358 642.758 405.002C642.656 405.645 642.414 406.259 642.051 406.8C641.688 407.341 641.212 407.796 640.656 408.135C640.099 408.474 639.476 408.688 638.829 408.763L621.981 410.699C620.908 410.818 619.828 410.549 618.936 409.941C618.044 409.333 617.399 408.426 617.118 407.384L598.709 338.081C598.557 337.511 598.52 336.917 598.598 336.333L606.872 274.134L668.586 279.083L673.048 425.786C673.066 426.388 672.964 426.988 672.746 427.55C672.528 428.112 672.2 428.624 671.78 429.057C671.361 429.489 670.859 429.833 670.304 430.068C669.749 430.303 669.152 430.424 668.55 430.424Z" fill="#2F2E41"/>
<path id="Vector_11" d="M647.217 289.719C626.541 289.719 603.132 281.73 601.715 281.239L601.305 281.097L624.629 161.413L625.059 161.431C634.302 161.806 659.528 161.998 659.782 162L660.234 162.003L669.957 267.622L671.695 283.071L671.482 283.243C665.534 288.052 656.661 289.719 647.217 289.719Z" fill="#0EFB85"/>
<path id="Vector_12" d="M609.864 279.375L595.275 273.499L602.711 183.555C602.89 181.338 603.565 179.189 604.685 177.267C605.806 175.345 607.344 173.7 609.185 172.452L616.862 167.227C616.645 166.488 616.606 165.709 616.749 164.952C616.891 164.195 617.211 163.483 617.682 162.874C618.153 162.265 618.762 161.777 619.459 161.449C620.155 161.121 620.92 160.963 621.689 160.987L623.888 161.058C624.306 160.776 624.799 160.627 625.304 160.631C625.808 160.635 626.299 160.791 626.713 161.078C627.127 161.366 627.444 161.772 627.623 162.243C627.802 162.715 627.834 163.229 627.715 163.719L627.232 173.248L609.864 279.375Z" fill="#2F2E41"/>
<path id="Vector_13" d="M604.347 265.244L585.345 263.691L593.076 224.273L599.659 187.155C599.812 185.819 600.265 184.535 600.985 183.399C601.704 182.262 602.671 181.303 603.814 180.593C604.956 179.883 606.244 179.441 607.581 179.299C608.919 179.156 610.271 179.318 611.537 179.772C613.509 180.477 615.169 181.854 616.228 183.661C617.286 185.468 617.675 187.59 617.326 189.655L610.554 229.887L604.347 265.244Z" fill="#2F2E41"/>
<path id="Vector_14" d="M632.665 280.751L632.535 280.35C632.447 280.076 623.862 252.539 638.227 219.678L645.43 183.853L651.585 161.358C651.701 160.956 651.908 160.586 652.191 160.278C652.475 159.97 652.826 159.733 653.217 159.585C653.676 159.426 654.172 159.405 654.643 159.526C655.114 159.647 655.539 159.904 655.865 160.265C660.156 159.006 664.768 159.467 668.725 161.551L677.369 166.105C679.292 167.118 680.824 168.739 681.725 170.716C682.627 172.693 682.847 174.913 682.351 177.028L670.536 227.451L676.279 274.548L632.665 280.751Z" fill="#2F2E41"/>
<g id="head">
<path id="Vector_15" d="M641.286 152.632C654.851 152.65 665.862 141.668 665.879 128.103C665.897 114.538 654.915 103.528 641.35 103.51C627.786 103.492 616.775 114.474 616.757 128.039C616.74 141.604 627.722 152.614 641.286 152.632Z" fill="#FFB8B8"/>
<path id="Vector_16" d="M647.377 130.467C644.502 131.205 641.931 128.485 640.569 125.847C639.208 123.208 638.035 120.086 635.311 118.904C631.589 117.29 627.449 120.288 623.397 120.102C618.821 119.891 615.324 115.497 614.538 110.984C613.753 106.471 615.025 101.882 616.285 97.4779L617.542 102.605C617.243 100.852 617.399 99.0511 617.995 97.3752C618.59 95.6993 619.606 94.2043 620.945 93.0333L621.083 100.766C621.124 99.6919 621.376 98.6363 621.826 97.6599C622.276 96.6835 622.914 95.8055 623.703 95.0763C624.493 94.3471 625.419 93.7811 626.428 93.4107C627.438 93.0403 628.51 92.8728 629.584 92.9179L630.016 97.4825C635.118 96.2321 640.266 94.9752 645.516 94.8076C650.767 94.64 656.198 95.642 660.553 98.5795C667.067 102.974 670.25 111.134 670.481 118.988C670.711 126.843 668.399 134.532 665.922 141.989C665.299 143.866 664.382 146.009 662.46 146.474C660.733 146.892 658.951 145.624 658.201 144.014C657.57 142.344 657.366 140.544 657.607 138.776C657.778 136.098 658.071 133.346 657.287 130.78C656.502 128.214 654.297 125.853 651.614 125.856C648.93 125.858 646.595 129.212 648.153 131.397L647.377 130.467Z" fill="#2F2E41"/>
</g>
<path id="Vector_17" d="M321.31 403.577L311.749 399.551L305.191 351.623H217.851L210.742 399.356L202.188 403.632C201.779 403.837 201.451 404.174 201.257 404.588C201.063 405.003 201.014 405.471 201.12 405.916C201.225 406.361 201.477 406.758 201.836 407.042C202.195 407.326 202.639 407.48 203.096 407.48H320.522C320.991 407.48 321.445 407.318 321.808 407.021C322.171 406.724 322.42 406.311 322.513 405.851C322.606 405.391 322.537 404.914 322.317 404.499C322.098 404.085 321.742 403.759 321.31 403.577Z" fill="#E6E6E6"/>
<path id="Vector_18" d="M476.519 358H47.481C45.23 357.995 43.0729 357.097 41.4829 355.504C39.893 353.91 39 351.751 39 349.5V289H485V349.5C485 351.751 484.107 353.91 482.517 355.504C480.927 357.097 478.77 357.995 476.519 358Z" fill="#CCCCCC"/>
<path id="Vector_19" d="M485.448 317.594H38.6084V58.7271C38.6115 56.0104 39.6922 53.4059 41.6132 51.485C43.5342 49.564 46.1387 48.4835 48.8554 48.4805H475.201C477.918 48.4835 480.523 49.5641 482.444 51.485C484.365 53.4059 485.445 56.0104 485.448 58.7271V317.594Z" fill="#3F3D56"/>
<path id="Vector_20" d="M458.76 298.805H65.2964C63.202 298.803 61.1941 297.97 59.7131 296.489C58.2321 295.008 57.3991 293 57.3967 290.906V75.1685C57.3991 73.074 58.2321 71.0661 59.713 69.5851C61.194 68.104 63.202 67.271 65.2964 67.2686H458.76C460.855 67.271 462.863 68.104 464.344 69.5851C465.825 71.0661 466.658 73.074 466.66 75.1685V290.906C466.658 293 465.825 295.008 464.344 296.489C462.863 297.97 460.855 298.803 458.76 298.805Z" fill="white"/>
<path id="Vector_21" d="M455.057 407.98H74.0569C73.7917 407.98 73.5374 407.875 73.3498 407.687C73.1623 407.5 73.0569 407.246 73.0569 406.98C73.0569 406.715 73.1623 406.461 73.3498 406.273C73.5374 406.086 73.7917 405.98 74.0569 405.98H455.057C455.322 405.98 455.577 406.086 455.764 406.273C455.952 406.461 456.057 406.715 456.057 406.98C456.057 407.246 455.952 407.5 455.764 407.687C455.577 407.875 455.322 407.98 455.057 407.98Z" fill="#CCCCCC"/>
<path id="Vector_22" d="M421.796 272H102.261C101.995 272 101.741 271.895 101.554 271.707C101.366 271.52 101.261 271.265 101.261 271V117.847C101.261 117.581 101.366 117.327 101.554 117.14C101.741 116.952 101.995 116.847 102.261 116.847C102.526 116.847 102.78 116.952 102.968 117.14C103.155 117.327 103.261 117.581 103.261 117.847V270H421.796C422.061 270 422.316 270.105 422.503 270.293C422.691 270.48 422.796 270.735 422.796 271C422.796 271.265 422.691 271.52 422.503 271.707C422.316 271.895 422.061 272 421.796 272Z" fill="#3F3D56"/>
<g id="candle1">
<path id="candle1v" d="M170.531 261H141.468C140.681 260.999 139.927 260.686 139.37 260.13C138.814 259.573 138.501 258.819 138.5 258.032V217.968C138.501 217.181 138.814 216.427 139.37 215.87C139.927 215.314 140.681 215.001 141.468 215H170.531C171.318 215.001 172.073 215.314 172.629 215.87C173.186 216.427 173.499 217.181 173.5 217.968V258.032C173.499 258.819 173.186 259.573 172.629 260.13C172.073 260.686 171.318 260.999 170.531 261Z" fill="#0EFB85"/>
<path id="point1" d="M156 203C159.314 203 162 200.314 162 197C162 193.686 159.314 191 156 191C152.686 191 150 193.686 150 197C150 200.314 152.686 203 156 203Z" fill="#3F3D56"/>
</g>
<g id="candle2">
<path id="candle2v" d="M223.531 261H194.468C193.681 260.999 192.927 260.686 192.37 260.13C191.814 259.573 191.501 258.819 191.5 258.032V179.968C191.501 179.181 191.814 178.427 192.37 177.87C192.927 177.314 193.681 177.001 194.468 177H223.531C224.318 177.001 225.073 177.314 225.629 177.87C226.186 178.427 226.499 179.181 226.5 179.968V258.032C226.499 258.819 226.186 259.573 225.629 260.13C225.073 260.686 224.318 260.999 223.531 261Z" fill="#0EFB85"/>
<path id="point2" d="M209 164C212.314 164 215 161.314 215 158C215 154.686 212.314 152 209 152C205.686 152 203 154.686 203 158C203 161.314 205.686 164 209 164Z" fill="#3F3D56"/>
</g>
<g id="candle3">
<path id="candle3v" d="M276.531 261H247.468C246.681 260.999 245.927 260.686 245.37 260.13C244.814 259.573 244.501 258.819 244.5 258.032V217.968C244.501 217.181 244.814 216.427 245.37 215.87C245.927 215.314 246.681 215.001 247.468 215H276.531C277.318 215.001 278.073 215.314 278.629 215.87C279.186 216.427 279.499 217.181 279.5 217.968V258.032C279.499 258.819 279.186 259.573 278.629 260.13C278.073 260.686 277.318 260.999 276.531 261Z" fill="#0EFB85"/>
<path id="point2_2" d="M262 203C265.314 203 268 200.314 268 197C268 193.686 265.314 191 262 191C258.686 191 256 193.686 256 197C256 200.314 258.686 203 262 203Z" fill="#3F3D56"/>
</g>
<g id="candle4">
<path id="candle4v" d="M329.531 261H300.468C299.699 261.017 298.955 260.728 298.399 260.196C297.842 259.665 297.519 258.935 297.5 258.166V164.834C297.519 164.065 297.842 163.335 298.399 162.804C298.955 162.272 299.699 161.983 300.468 162H329.531C330.301 161.983 331.045 162.272 331.601 162.804C332.158 163.335 332.481 164.065 332.5 164.834V258.166C332.481 258.935 332.158 259.665 331.601 260.196C331.045 260.728 330.301 261.017 329.531 261Z" fill="#0EFB85"/>
<path id="point4" d="M315 145C318.314 145 321 142.314 321 139C321 135.686 318.314 133 315 133C311.686 133 309 135.686 309 139C309 142.314 311.686 145 315 145Z" fill="#3F3D56"/>
</g>
<g id="candle5">
<path id="candle5v" d="M382.531 261H353.468C352.681 260.999 351.927 260.686 351.37 260.13C350.814 259.573 350.501 258.819 350.5 258.032V137.968C350.501 137.181 350.814 136.427 351.37 135.87C351.927 135.314 352.681 135.001 353.468 135H382.531C383.318 135.001 384.073 135.314 384.629 135.87C385.186 136.427 385.499 137.181 385.5 137.968V258.032C385.499 258.819 385.186 259.573 384.629 260.13C384.073 260.686 383.318 260.999 382.531 261Z" fill="#0EFB85"/>
<path id="point5" d="M368 123C371.314 123 374 120.314 374 117C374 113.686 371.314 111 368 111C364.686 111 362 113.686 362 117C362 120.314 364.686 123 368 123Z" fill="#3F3D56"/>
</g>
<path id="Vector_23" d="M262.126 198.344L209 158.552L156.6 197.8L155.4 196.2L209 156.053L261.874 195.656L314.415 138.158L314.626 138.072L367.626 116.718L368.374 118.573L315.585 139.842L262.126 198.344Z" fill="#3F3D56"/>
<g id="arm">
<path id="Vector_24" d="M600.263 224.988L568.218 211.653L580.471 213.979L609.49 226.517L600.263 224.988Z" fill="#575988"/>
<path id="Vector_25" d="M605.646 229.356L597.988 227.323L569.096 214.189L569.436 212.729L579.511 214.992L606.442 227.609L605.646 229.356Z" fill="#D8E2F0"/>
<path id="Vector_26" d="M602.457 237.208C603.68 238.024 605.066 238.563 606.519 238.786C607.973 239.009 609.457 238.91 610.868 238.497C612.279 238.085 613.582 237.367 614.686 236.396C615.789 235.425 616.667 234.224 617.256 232.877L650.146 227.679L643.905 219.422L611.451 219.255C609.122 218.415 606.567 218.458 604.269 219.376C601.97 220.294 600.088 222.024 598.98 224.237C597.871 226.45 597.613 228.992 598.254 231.383C598.895 233.774 600.39 235.846 602.457 237.208L602.457 237.208Z" fill="#FFB8B8"/>
<path id="Vector_27" d="M627.465 236.007L627.256 216.871L653.8 214.174L662.2 174.557C662.536 172.971 663.196 171.471 664.137 170.151C665.079 168.831 666.283 167.72 667.674 166.886C669.065 166.052 670.612 165.514 672.22 165.306C673.828 165.097 675.462 165.222 677.019 165.673C679.769 166.476 682.133 168.249 683.674 170.663C685.215 173.077 685.827 175.969 685.398 178.801L678.457 223.832C678.315 224.76 677.885 225.62 677.229 226.292C676.573 226.963 675.723 227.413 674.799 227.577L627.465 236.007Z" fill="#2F2E41"/>
</g>
</g>
<defs>
<clipPath id="clip0">
<rect width="763.057" height="458" fill="white"/>
</clipPath>
</defs>
</svg>
